<?xml version="1.0" encoding="UTF-8" standalone="no"?>
<!DOCTYPE svg PUBLIC "-//W3C//DTD SVG 1.1//EN" "http://www.w3.org/Graphics/SVG/1.1/DTD/svg11.dtd">
<svg width="100%" height="100%" viewBox="0 0 432 90" version="1.1" xmlns="http://www.w3.org/2000/svg" xmlns:xlink="http://www.w3.org/1999/xlink" xml:space="preserve" style="fill-rule:evenodd;clip-rule:evenodd;stroke-linejoin:round;stroke-miterlimit:1.41421;">
    <g>
        <path d="M66.847,31.093L66.847,21.227C62.657,21.227 57.926,21.97 54.142,25.417L54.142,19.537L43.194,22.24L43.194,60.76L54.953,60.76L54.953,32.85C57.994,31.837 62.589,31.093 66.847,31.093Z" style="fill:white;fill-rule:nonzero;"/>
        <path d="M84.62,60.76L84.62,21.204L72.861,21.204L72.861,60.76L84.62,60.76ZM84.89,14.379L84.89,5.526L72.658,8.116L72.658,16.969L84.89,14.379Z" style="fill:white;fill-rule:nonzero;"/>
        <path d="M130.438,43.46L130.438,38.73C130.438,26.701 125.167,21.159 113.746,21.159C110.976,21.159 108.137,21.632 105.907,22.578L105.907,1.358L94.081,8.116L94.081,60.693C101.515,61.504 105.637,61.774 111.043,61.774C123.816,61.774 130.438,56.773 130.438,43.46ZM118.747,43.393C118.747,50.826 116.585,52.786 111.178,52.786C108.948,52.786 106.988,52.651 105.772,52.583L105.772,31.296C107.664,30.35 110.705,30.147 112.124,30.147C117.193,30.147 118.747,32.174 118.747,38.662L118.747,43.393Z" style="fill:white;fill-rule:nonzero;"/>
        <path d="M174.567,43.46L174.567,38.73C174.567,26.701 169.296,21.159 157.875,21.159C155.105,21.159 152.266,21.632 150.036,22.578L150.036,1.358L138.21,8.116L138.21,60.693C145.644,61.504 149.766,61.774 155.172,61.774C167.945,61.774 174.567,56.773 174.567,43.46ZM162.876,43.393C162.876,50.826 160.714,52.786 155.307,52.786C153.077,52.786 151.117,52.651 149.901,52.583L149.901,31.296C151.793,30.35 154.834,30.147 156.253,30.147C161.322,30.147 162.876,32.174 162.876,38.662L162.876,43.393Z" style="fill:white;fill-rule:nonzero;"/>
        <path d="M194.368,60.76L194.368,1.358L182.609,8.116L182.609,60.76L194.368,60.76Z" style="fill:white;fill-rule:nonzero;"/>
        <path d="M239.308,44.677L239.308,41.5C239.308,30.417 235.388,21.227 220.927,21.227C208.762,21.227 202.342,27.174 202.342,40.622L202.342,42.717C202.342,56.841 208.289,61.774 222.413,61.774C229.036,61.774 234.442,60.828 237.416,60.085L237.416,52.313C230.928,52.786 226.874,53.056 222.954,53.056C214.642,53.056 213.966,50.286 213.966,45.217L213.966,44.677L239.308,44.677ZM227.752,38.257L214.033,38.257L214.033,37.716C214.033,33.526 215.047,29.606 220.859,29.606C226.874,29.606 227.752,33.458 227.752,37.716L227.752,38.257Z" style="fill:white;fill-rule:nonzero;"/>
        <path d="M16.764,87.809L16.764,75.575L15.277,75.575L15.277,87.809L16.764,87.809ZM16.786,73.186L16.786,70.392L15.277,70.392L15.277,73.186L16.786,73.186Z" style="fill:white;fill-rule:nonzero;"/>
        <path d="M43.78,87.809L43.78,80.058C43.78,76.926 43.059,75.259 39.904,75.259C38.439,75.259 37.042,75.845 35.691,76.566L35.691,75.575L34.226,75.575L34.226,87.809L35.691,87.809L35.691,77.715C37.223,76.994 38.597,76.543 39.769,76.543C41.729,76.543 42.292,77.445 42.292,80.058L42.292,87.809L43.78,87.809Z" style="fill:white;fill-rule:nonzero;"/>
        <path d="M66.942,87.832L66.942,86.796C66.402,86.863 65.5,86.908 64.892,86.908C63.63,86.908 63.427,86.548 63.427,84.993L63.427,76.814L66.942,76.814L66.942,75.575L63.427,75.575L63.427,72.285L61.963,72.285L61.963,75.575L59.304,75.575L59.304,76.701L61.963,76.814L61.963,85.061C61.963,87.315 62.661,88.102 64.734,88.102C65.5,88.102 66.447,87.945 66.942,87.832Z" style="fill:white;fill-rule:nonzero;"/>
        <path d="M92.381,82.199L92.381,81.455C92.381,77.422 90.826,75.259 87.289,75.259C83.774,75.259 82.219,77.467 82.219,81.298L82.219,82.154C82.219,86.232 83.571,88.102 87.74,88.102C89.565,88.102 91.097,87.855 91.976,87.652L91.976,86.48C90.849,86.66 89.136,86.818 87.785,86.818C84.45,86.818 83.684,85.263 83.684,82.469L83.684,82.199L92.381,82.199ZM90.849,80.96L83.684,80.96L83.706,80.757C83.706,78.639 84.315,76.543 87.289,76.543C90.241,76.543 90.849,78.571 90.849,80.757L90.849,80.96Z" style="fill:white;fill-rule:nonzero;"/>
        <path d="M115.161,76.589L115.161,75.259C113.741,75.259 112.006,75.53 110.564,76.566L110.564,75.575L109.122,75.575L109.122,87.809L110.564,87.809L110.564,77.715C111.916,76.904 113.809,76.589 115.161,76.589Z" style="fill:white;fill-rule:nonzero;"/>
        <path d="M140.555,87.809L140.555,80.058C140.555,76.926 139.834,75.259 136.679,75.259C135.214,75.259 133.817,75.845 132.466,76.566L132.466,75.575L131.001,75.575L131.001,87.809L132.466,87.809L132.466,77.715C133.998,76.994 135.372,76.543 136.544,76.543C138.504,76.543 139.067,77.445 139.067,80.058L139.067,87.809L140.555,87.809Z" style="fill:white;fill-rule:nonzero;"/>
        <path d="M167.413,82.199L167.413,81.455C167.413,77.422 165.858,75.259 162.32,75.259C158.805,75.259 157.251,77.467 157.251,81.298L157.251,82.154C157.251,86.232 158.603,88.102 162.771,88.102C164.596,88.102 166.128,87.855 167.007,87.652L167.007,86.48C165.881,86.66 164.168,86.818 162.816,86.818C159.481,86.818 158.715,85.263 158.715,82.469L158.715,82.199L167.413,82.199ZM165.881,80.96L158.715,80.96L158.738,80.757C158.738,78.639 159.346,76.543 162.32,76.543C165.272,76.543 165.881,78.571 165.881,80.757L165.881,80.96Z" style="fill:white;fill-rule:nonzero;"/>
        <path d="M190.057,87.832L190.057,86.796C189.517,86.863 188.615,86.908 188.007,86.908C186.745,86.908 186.542,86.548 186.542,84.993L186.542,76.814L190.057,76.814L190.057,75.575L186.542,75.575L186.542,72.285L185.078,72.285L185.078,75.575L182.419,75.575L182.419,76.701L185.078,76.814L185.078,85.061C185.078,87.315 185.776,88.102 187.849,88.102C188.615,88.102 189.562,87.945 190.057,87.832Z" style="fill:white;fill-rule:nonzero;"/>
        <path d="M237.555,87.809L237.555,87.539L235.302,85.287C236.428,83.573 236.699,81.275 236.699,79.247L238.096,79.157L238.096,78.008L233.905,78.008L233.905,79.157L235.302,79.247C235.302,80.96 235.166,82.92 234.333,84.34L228.362,78.323C226.807,76.746 226.154,75.958 226.154,74.471C226.154,72.51 227.596,72.127 229.488,72.127C231.088,72.127 232.756,72.262 233.995,72.398L233.995,71.203C232.846,70.978 231.088,70.798 229.421,70.798C226.582,70.798 224.621,71.744 224.621,74.403C224.621,76.431 225.613,77.557 227.1,79.067L227.235,79.225C224.959,80.464 224.081,81.748 224.058,83.664L224.058,83.799C224.058,86.953 226.469,88.102 229.398,88.102C231.674,88.102 233.274,87.426 234.355,86.367L235.797,87.809L237.555,87.809ZM233.454,85.466C232.575,86.322 231.268,86.818 229.398,86.818C227.258,86.818 225.59,85.985 225.59,83.799L225.59,83.664C225.59,81.997 226.289,81.117 228.182,80.149L233.454,85.466Z" style="fill:white;fill-rule:nonzero;"/>
        <path d="M278.969,76.589L278.969,75.259C277.549,75.259 275.814,75.53 274.372,76.566L274.372,75.575L272.93,75.575L272.93,87.809L274.372,87.809L274.372,77.715C275.724,76.904 277.617,76.589 278.969,76.589Z" style="fill:white;fill-rule:nonzero;"/>
        <path d="M303.731,82.199L303.731,81.455C303.731,77.422 302.177,75.259 298.639,75.259C295.124,75.259 293.569,77.467 293.569,81.298L293.569,82.154C293.569,86.232 294.921,88.102 299.09,88.102C300.915,88.102 302.447,87.855 303.326,87.652L303.326,86.48C302.199,86.66 300.487,86.818 299.135,86.818C295.8,86.818 295.034,85.263 295.034,82.469L295.034,82.199L303.731,82.199ZM302.199,80.96L295.034,80.96L295.057,80.757C295.057,78.639 295.665,76.543 298.639,76.543C301.591,76.543 302.199,78.571 302.199,80.757L302.199,80.96Z" style="fill:white;fill-rule:nonzero;"/>
        <path d="M328.156,87.719L328.156,86.593C326.624,86.773 325.632,86.841 325.002,86.841C322.658,86.841 321.396,86.007 321.396,82.357L321.396,81.005C321.396,77.422 322.681,76.543 325.002,76.543C325.678,76.543 326.669,76.611 328.156,76.769L328.156,75.642C327.413,75.484 326.263,75.259 324.799,75.259C321.487,75.259 319.909,77.062 319.909,81.005L319.909,82.357C319.909,86.345 321.442,88.102 324.799,88.102C326.218,88.102 327.345,87.9 328.156,87.719Z" style="fill:white;fill-rule:nonzero;"/>
        <rect x="344.807" y="70.392" width="1.465" height="17.417" style="fill:white;"/>
        <path d="M372.206,87.809L372.206,79.473C372.206,76.589 371.485,75.259 367.587,75.259C366.01,75.259 365.041,75.484 363.892,75.687L363.892,76.769C365.266,76.611 366.28,76.521 367.474,76.521C370.201,76.521 370.719,77.084 370.719,79.473L370.719,80.509L368.646,80.509C365.063,80.509 363.058,81.14 363.058,84.249L363.058,84.587C363.058,87.021 364.32,88.102 366.708,88.102C368.533,88.102 369.93,87.449 370.787,86.931L370.787,87.809L372.206,87.809ZM370.719,85.849C370.043,86.277 368.533,86.953 367.001,86.953C365.469,86.953 364.523,86.367 364.523,84.678L364.523,84.249C364.523,82.064 365.694,81.658 368.646,81.658L370.719,81.658L370.719,85.849Z" style="fill:white;fill-rule:nonzero;"/>
        <path d="M404.697,87.809L404.697,79.63C404.697,77.58 404.54,75.259 401.25,75.259C400.123,75.259 398.749,75.665 397.307,76.634C396.856,75.777 396.045,75.259 394.58,75.259C393.296,75.259 392.012,75.755 390.863,76.543L390.863,75.575L389.398,75.575L389.398,87.809L390.863,87.809L390.863,77.693C391.944,77.062 393.206,76.543 394.265,76.543C396.18,76.543 396.293,77.648 396.293,79.63L396.293,87.809L397.78,87.809L397.78,79.63C397.78,78.842 397.735,78.256 397.622,77.693C398.862,76.949 400.123,76.543 401.07,76.543C403.052,76.543 403.21,77.693 403.21,79.63L403.21,87.809L404.697,87.809Z" style="fill:white;fill-rule:nonzero;"/>
        <path d="M431.555,82.199L431.555,81.455C431.555,77.422 430.001,75.259 426.463,75.259C422.948,75.259 421.394,77.467 421.394,81.298L421.394,82.154C421.394,86.232 422.745,88.102 426.914,88.102C428.739,88.102 430.271,87.855 431.15,87.652L431.15,86.48C430.023,86.66 428.311,86.818 426.959,86.818C423.624,86.818 422.858,85.263 422.858,82.469L422.858,82.199L431.555,82.199ZM430.023,80.96L422.858,80.96L422.881,80.757C422.881,78.639 423.489,76.543 426.463,76.543C429.415,76.543 430.023,78.571 430.023,80.757L430.023,80.96Z" style="fill:white;fill-rule:nonzero;"/>
        <path d="M302.934,60.495L302.934,10.284L296.536,10.284C296.536,10.284 282.93,47.416 281.984,49.443L267.95,10.284L260.967,10.284L260.967,60.495L265.427,60.495L265.427,24.07C265.427,21.029 265.36,19.069 265.225,16.231L265.36,16.231C266.509,18.461 281.917,60.4 281.917,60.4C281.917,60.4 297.527,18.596 298.609,16.231L298.744,16.231C298.609,19.069 298.473,21.096 298.473,24.07L298.473,60.495L302.934,60.495Z" style="fill:white;fill-rule:nonzero;"/>
        <path d="M342.873,43.668L342.873,41.438C342.873,29.341 338.21,22.853 327.6,22.853C317.058,22.853 312.395,29.476 312.395,40.965L312.395,43.533C312.395,55.764 316.449,61.373 328.952,61.373C334.425,61.373 339.021,60.63 341.656,60.022L341.656,56.508C338.277,57.048 333.141,57.521 329.087,57.521C319.085,57.521 316.787,52.858 316.787,44.479L316.787,43.668L342.873,43.668ZM338.277,39.951L316.787,39.951L316.855,39.343C316.855,32.99 318.68,26.705 327.6,26.705C336.453,26.705 338.277,32.788 338.277,39.343L338.277,39.951Z" style="fill:white;fill-rule:nonzero;"/>
        <path d="M378.825,60.495L378.825,8.256L374.432,8.256L374.432,23.664C370.783,23.056 368.012,22.853 365.444,22.853C356.118,22.853 350.171,26.841 350.171,40.154L350.171,44.681C350.171,56.44 354.834,61.373 363.687,61.373C368.215,61.373 371.999,59.819 374.567,58.4L374.567,60.495L378.825,60.495ZM374.432,54.886C371.661,56.237 368.283,57.589 364.431,57.589C357.537,57.589 354.632,53.94 354.632,44.681L354.632,40.154C354.632,29.206 358.416,26.638 365.715,26.638C367.607,26.638 370.918,26.908 374.432,27.381L374.432,54.886Z" style="fill:white;fill-rule:nonzero;"/>
        <path d="M394.436,60.495L394.436,23.8L389.975,23.8L389.975,60.495L394.436,60.495ZM394.503,16.636L394.503,8.256L389.975,8.256L389.975,16.636L394.503,16.636Z" style="fill:white;fill-rule:nonzero;"/>
        <path d="M431.131,60.495L431.131,35.491C431.131,26.841 428.968,22.853 417.277,22.853C412.547,22.853 409.641,23.529 406.194,24.137L406.194,27.381C410.317,26.908 413.358,26.638 416.939,26.638C425.116,26.638 426.671,28.327 426.671,35.491L426.671,38.599L420.453,38.599C409.708,38.599 403.694,40.492 403.694,49.817L403.694,50.831C403.694,58.13 407.478,61.373 414.642,61.373C420.116,61.373 424.305,59.414 426.873,57.86L426.873,60.495L431.131,60.495ZM426.671,54.616C424.643,55.9 420.116,57.927 415.52,57.927C410.925,57.927 408.087,56.17 408.087,51.101L408.087,49.817C408.087,43.262 411.601,42.046 420.453,42.046L426.671,42.046L426.671,54.616Z" style="fill:white;fill-rule:nonzero;"/>
        <path d="M42.676,19.206L42.676,9.872L0.26,9.872L0.26,19.206L15.017,19.206L15.017,60.866L27.92,60.866L27.92,19.206L42.676,19.206Z" style="fill:white;fill-rule:nonzero;"/>
    </g>
</svg>
